<?xml version="1.0" encoding="utf-8"?>
<!-- Generator: Adobe Illustrator 15.0.0, SVG Export Plug-In . SVG Version: 6.00 Build 0)  -->
<!DOCTYPE svg PUBLIC "-//W3C//DTD SVG 1.1//EN" "http://www.w3.org/Graphics/SVG/1.1/DTD/svg11.dtd">
<svg version="1.1" id="Layer_1" xmlns="http://www.w3.org/2000/svg" xmlns:xlink="http://www.w3.org/1999/xlink" x="0px" y="0px"
	 width="3169px" height="2233px" viewBox="0 0 3169 2233" enable-background="new 0 0 3169 2233" xml:space="preserve">
<g id="splash">
	<text transform="matrix(1 0 0 1 381.5986 309.3457)"><tspan x="0" y="0" font-family="'HelveticaNeue-Bold'" font-size="60">This example is one</tspan><tspan x="-121.108" y="72" font-family="'HelveticaNeue-Bold'" font-size="60">SVG was made in Illustrator,</tspan><tspan x="-61.259" y="144" font-family="'HelveticaNeue-Bold'" font-size="60">processed in JavaScript</tspan></text>
	<rect id="shape" x="151.5" y="123.5" fill="none" stroke="#000000" stroke-miterlimit="10" width="1024" height="554"/>
	<text transform="matrix(1 0 0 1 390.0459 549.3613)" font-family="'HelveticaNeue-UltraLight'" font-size="48">All this text is written Illustrator</text>
	<text transform="matrix(1 0 0 1 968.7803 641.3613)" font-family="'HelveticaNeue'" font-size="18">click to continue</text>
	<rect id="link:splash2" x="151" y="124" opacity="0" width="1024" height="554"/>
</g>
<g id="splash2">
	<text transform="matrix(1 0 0 1 1641.75 447.3652)"><tspan x="0" y="0" font-family="'HelveticaNeue-Bold'" font-size="60">It consists of</tspan><tspan x="0" y="72" font-family="'HelveticaNeue-Bold'" font-size="60">several screens,</tspan><tspan x="0" y="144" font-family="'HelveticaNeue-Bold'" font-size="60">defined in groups</tspan></text>
	<rect id="shape_1_" x="1569.5" y="123.5" fill="none" stroke="#000000" stroke-miterlimit="10" width="1024" height="554"/>
	<text transform="matrix(1 0 0 1 1795.5947 250.333)" font-family="'HelveticaNeue-UltraLight'" font-size="48">Work in progress -&gt;</text>
	<text transform="matrix(1 0 0 1 2386.7803 641.3613)" font-family="'HelveticaNeue'" font-size="18">click to continue</text>
	<image overflow="visible" width="218" height="279" xlink:href="groups.png"  transform="matrix(1 0 0 1 2281.9395 200)">
	</image>
	<rect id="link:splash3" x="1570" y="124" opacity="0" width="1024" height="554"/>
</g>
<g id="splash3">
	<text transform="matrix(1 0 0 1 1621.75 975.3457)"><tspan x="0" y="0" font-family="'HelveticaNeue-Bold'" font-size="60">The whole file looks something</tspan><tspan x="0" y="72" font-family="'HelveticaNeue-Bold'" font-size="60">like this</tspan></text>
	<text transform="matrix(1 0 0 1 1779.0674 1368.4443)" font-family="'HelveticaNeue-UltraLight'" font-size="36">You can click them</text>
	<rect id="shape_3_" x="1569.5" y="879.5" fill="none" stroke="#000000" stroke-miterlimit="10" width="1024" height="554"/>
	<g>
		<g id="splash_1_">
			<text transform="matrix(1 0 0 1 1989.7754 1081.209)"><tspan x="0" y="0" font-family="'HelveticaNeue-Bold'" font-size="11.8512">This example is one</tspan><tspan x="-23.921" y="14.222" font-family="'HelveticaNeue-Bold'" font-size="11.8512">SVG was made in Illustrator,</tspan><tspan x="-12.1" y="28.442" font-family="'HelveticaNeue-Bold'" font-size="11.8512">processed in JavaScript</tspan></text>
			<rect id="shape_7_" x="1944.5" y="1044.5" fill="none" stroke="#000000" stroke-miterlimit="10" width="202" height="110"/>
			<text transform="matrix(1 0 0 1 1991.4443 1128.6172)" font-family="'HelveticaNeue-UltraLight'" font-size="9.4809">All this text is written Illustrator</text>
			<text transform="matrix(1 0 0 1 2105.7549 1146.7891)" font-family="'HelveticaNeue'" font-size="3.5554">click to continue</text>
			<rect id="link:splash" x="1944" y="1045" opacity="0" width="203" height="109"/>
		</g>
		<g id="splash2_3_">
			<text transform="matrix(1 0 0 1 2238.6797 1108.4707)"><tspan x="0" y="0" font-family="'HelveticaNeue-Bold'" font-size="11.8512">It consists of</tspan><tspan x="0" y="14.222" font-family="'HelveticaNeue-Bold'" font-size="11.8512">several screens,</tspan><tspan x="0" y="28.442" font-family="'HelveticaNeue-Bold'" font-size="11.8512">defined in groups</tspan></text>
			<rect id="shape_6_" x="2224.5" y="1044.5" fill="none" stroke="#000000" stroke-miterlimit="10" width="202" height="110"/>
			<text transform="matrix(1 0 0 1 2269.0674 1069.5527)" font-family="'HelveticaNeue-UltraLight'" font-size="9.4809">Work in progress -&gt;</text>
			<text transform="matrix(1 0 0 1 2385.8369 1146.7891)" font-family="'HelveticaNeue'" font-size="3.5554">click to continue</text>
			
				<image overflow="visible" width="218" height="279" xlink:href="groups.png"  transform="matrix(0.1975 0 0 0.1975 2365.1279 1059.6104)">
			</image>
			<rect id="link:splash2_1_" x="2224" y="1045" opacity="0" width="203" height="109"/>
		</g>
		<g id="splash3_1_">
			<text transform="matrix(1 0 0 1 2238.6797 1216.708)"><tspan x="0" y="0" font-family="'HelveticaNeue-Bold'" font-size="11.8512">The whole file looks</tspan><tspan x="0" y="14.222" font-family="'HelveticaNeue-Bold'" font-size="11.8512">something like this</tspan></text>
			<rect id="shape_5_" x="2224.5" y="1194.5" fill="none" stroke="#000000" stroke-miterlimit="10" width="202" height="109"/>
			<text transform="matrix(1 0 0 1 2385.8369 1296.1143)" font-family="'HelveticaNeue'" font-size="3.5554">click to continue</text>
			<rect id="link:splash3_1_" x="2220" y="1194" opacity="0" width="206" height="110"/>
		</g>
	</g>
</g>
</svg>
